<svg xmlns="http://www.w3.org/2000/svg" viewBox="0 0 32 32" fill="none">
  <rect width="32" height="32" rx="8" fill="#0f0a1a"/>
  <path d="M8 24V8h4.5c1.8 0 3.2.5 4.2 1.4C17.7 10.3 18 11.5 18 13c0 1-.3 1.9-.8 2.6-.5.7-1.3 1.2-2.2 1.5.5.1 1 .3 1.4.7.4.3.8.8 1 1.4.3.6.4 1.3.4 2.1 0 1.5-.5 2.7-1.5 3.5S14 24 12.3 24H8zm4-7.5h.5c1 0 1.8-.2 2.3-.7.5-.4.8-1.1.8-1.9s-.3-1.4-.8-1.8c-.5-.4-1.3-.6-2.3-.6H12v5zm0 2v3.5h.8c1.1 0 1.9-.2 2.5-.7.6-.5.8-1.2.8-2.1s-.3-1.5-.8-2c-.5-.4-1.3-.7-2.4-.7H12z" fill="#8b5cf6"/>
  <circle cx="24" cy="10" r="3" fill="#ec4899" opacity="0.8"/>
</svg>
